<svg xmlns="http://www.w3.org/2000/svg" width="27.565" height="18" viewBox="0 0 27.565 18"><defs><style>.a{fill:#bf9f41;}</style></defs><path class="a" d="M.5,15.818H2.015a3.031,3.031,0,0,0,6.022,0h9.8a3.031,3.031,0,0,0,6.022,0h3.2a.505.505,0,0,0,.505-.505V1.006A.505.505,0,0,0,27.058.5H9.527a.505.505,0,0,0-.5.505V3.84H4.743a.506.506,0,0,0-.414.217L1.565,8.013.484,9.528l-.394.561A.5.5,0,0,0,0,10.377V15.3a.506.506,0,0,0,.5.52Zm4.516,1.516a2.021,2.021,0,1,1,2.021-2.021,2.046,2.046,0,0,1-2.021,2.046Zm15.823,0a2.021,2.021,0,1,1,2.021-2.021,2.046,2.046,0,0,1-2.021,2.046Zm5.7-15.823v9.054H12.826a.505.505,0,1,0,0,1.01H26.543v3.233H23.85a3.031,3.031,0,0,0-6.022,0h-7.8v-11H13.68a.505.505,0,1,0,0-1.011H10.032V1.511ZM5.005,4.85H9.047v9.958H8.037a3.031,3.031,0,0,0-6.022,0H1V10.539l.152-.217H7.319a.5.5,0,0,0,.505-.5V6.078a.505.505,0,0,0-.505-.505H4.49ZM3.783,6.593H6.814V9.321H1.858Zm0,0" transform="translate(0.002 -0.501)"/></svg>